<svg xmlns="http://www.w3.org/2000/svg" viewBox="0 0 517.17 59.87"><title>Asset 1</title><g id="Layer_2" data-name="Layer 2"><g id="Layer_1-2" data-name="Layer 1"><path d="M51.18,8.69A29.94,29.94,0,0,0,32.4,0a.87.87,0,0,0-.82.43l-.14.24a1.68,1.68,0,0,0-.15.22L7.5,41.62A1.55,1.55,0,0,0,8.85,44h2.74l-2,3.46A26.87,26.87,0,0,1,11,10.88,26.53,26.53,0,0,1,26.75,3.2a1.55,1.55,0,0,0,1-2.67A1.56,1.56,0,0,0,26.64.1h-.12A30,30,0,0,0,0,29.89,29.78,29.78,0,0,0,8.69,51a1.55,1.55,0,0,0,2.57-.19L15.17,44H51.29a1.55,1.55,0,0,0,1.35-2.33L34.09,9.49a1.56,1.56,0,0,0-2.69,0L13.29,40.85H11.55l22-37.6A26.87,26.87,0,0,1,56.85,29.89a26.88,26.88,0,0,1-42,22.2l-.08,0a1.55,1.55,0,0,0-2,2.27.87.87,0,0,0,.26.28A30,30,0,0,0,60,29.89a29.78,29.78,0,0,0-8.78-21.2M16.88,40.84,32.74,13.37,48.6,40.84Z" style="fill:#231f20"/><path d="M87.56,9.6a17.15,17.15,0,0,1,12,4.6.92.92,0,0,1,0,1.38L97.4,17.81c-.34.44-.79.44-1.24,0a13.39,13.39,0,0,0-8.55-3.31,12.6,12.6,0,0,0-12.4,12.85,12.6,12.6,0,0,0,12.45,12.8,13.23,13.23,0,0,0,8.5-3.26.91.91,0,0,1,1.19,0l2.27,2.22a.94.94,0,0,1,0,1.33,17,17,0,0,1-12,4.79,17.79,17.79,0,1,1,0-35.58" style="fill:#010101"/><path d="M121.71,9.6A17.79,17.79,0,1,1,104,27.44,17.76,17.76,0,0,1,121.71,9.6m0,30.64a12.85,12.85,0,1,0-12.8-12.8,12.84,12.84,0,0,0,12.8,12.8" style="fill:#010101"/><path d="M146.56,10.49a.93.93,0,0,1,.94-.89h1.24l21.44,24.81h0V11a.94.94,0,0,1,.94-.94h3.16a1,1,0,0,1,.94.94V44.29a.93.93,0,0,1-.94.89H173L151.6,19.69h0V43.75a.94.94,0,0,1-.94.94H147.5a1,1,0,0,1-.94-.94Z" style="fill:#010101"/><path d="M182.63,39.7c.44-.64.84-1.38,1.28-2a1.12,1.12,0,0,1,1.68-.4c.3.25,4.1,3.41,7.91,3.41,3.41,0,5.58-2.08,5.58-4.59,0-3-2.57-4.84-7.46-6.87s-9-4.74-9-10.48c0-3.85,3-9.14,10.82-9.14a16.74,16.74,0,0,1,9.14,2.91,1.17,1.17,0,0,1,.3,1.68l-1.24,1.88a1.17,1.17,0,0,1-1.73.49c-.35-.2-3.8-2.47-6.67-2.47-4.15,0-5.58,2.62-5.58,4.45,0,2.82,2.17,4.55,6.28,6.23,5.73,2.32,10.62,5,10.62,11.07,0,5.14-4.6,9.34-11,9.34a16,16,0,0,1-10.62-3.9,1,1,0,0,1-.3-1.58" style="fill:#010101"/><path d="M226.71,9.6a17.15,17.15,0,0,1,12,4.6.92.92,0,0,1,.05,1.38l-2.18,2.22c-.34.44-.79.44-1.23,0a13.4,13.4,0,0,0-8.55-3.31,12.6,12.6,0,0,0-12.4,12.85,12.6,12.6,0,0,0,12.45,12.8,13.23,13.23,0,0,0,8.5-3.26.91.91,0,0,1,1.19,0l2.27,2.22a.94.94,0,0,1,0,1.33,17,17,0,0,1-12,4.79,17.79,17.79,0,1,1,0-35.58" style="fill:#010101"/><rect x="245.78" y="10.1" width="5.14" height="34.59" rx="0.94" ry="0.94" style="fill:#010101"/><path d="M275.73,9.6A17.79,17.79,0,1,1,258,27.44,17.76,17.76,0,0,1,275.73,9.6m0,30.64a12.85,12.85,0,1,0-12.8-12.8,12.84,12.84,0,0,0,12.8,12.8" style="fill:#010101"/><path d="M300.14,11a1,1,0,0,1,.94-.94h3.31a.94.94,0,0,1,.94.94V31.45c0,4.94,3.16,8.8,8.2,8.8s8.3-3.8,8.3-8.7V11a.94.94,0,0,1,.94-.94h3.31A1,1,0,0,1,327,11V31.79a13.44,13.44,0,0,1-26.88,0Z" style="fill:#010101"/><path d="M333.94,39.7c.44-.64.84-1.38,1.28-2a1.12,1.12,0,0,1,1.68-.4c.3.25,4.1,3.41,7.91,3.41,3.41,0,5.58-2.08,5.58-4.59,0-3-2.57-4.84-7.46-6.87s-9-4.74-9-10.48c0-3.85,3-9.14,10.82-9.14a16.74,16.74,0,0,1,9.14,2.91,1.17,1.17,0,0,1,.3,1.68L353,16.08a1.17,1.17,0,0,1-1.73.49c-.35-.2-3.8-2.47-6.67-2.47-4.15,0-5.59,2.62-5.59,4.45,0,2.82,2.17,4.55,6.28,6.23,5.73,2.32,10.62,5,10.62,11.07,0,5.14-4.6,9.34-11,9.34a16,16,0,0,1-10.62-3.9,1,1,0,0,1-.3-1.58" style="fill:#010101"/><path d="M385.09,9.6a16.9,16.9,0,0,1,12,4.6.63.63,0,0,1,0,.89c-.25.3-.54.59-.79.84s-.54.3-.84,0A15.2,15.2,0,0,0,385,11.78a15.43,15.43,0,0,0-15.37,15.56A15.43,15.43,0,0,0,385,42.91c6,0,9.78-2.32,10.28-2.72V30.9h-8.45c-.54,0-.64-.2-.64-.64v-1c0-.4.1-.59.64-.59H397a.65.65,0,0,1,.64.59V40.74a1.37,1.37,0,0,1-.69,1.28,22.86,22.86,0,0,1-11.86,3.16,17.79,17.79,0,1,1,0-35.58" style="fill:#010101"/><path d="M421.7,9.6a17.79,17.79,0,1,1-17.79,17.84A17.77,17.77,0,0,1,421.7,9.6m0,33.4a15.61,15.61,0,1,0-15.62-15.56A15.59,15.59,0,0,0,421.7,43" style="fill:#010101"/><path d="M462.86,9.6a17.79,17.79,0,1,1-17.79,17.84A17.77,17.77,0,0,1,462.86,9.6m0,33.4a15.61,15.61,0,1,0-15.62-15.56A15.59,15.59,0,0,0,462.86,43" style="fill:#010101"/><path d="M488.71,10.74a.65.65,0,0,1,.59-.64h10.48a17.3,17.3,0,1,1,0,34.59H489.3a.65.65,0,0,1-.59-.64Zm10.67,31.82A15,15,0,0,0,514.7,27.34a15,15,0,0,0-15.32-15.12H491V42.56Z" style="fill:#010101"/></g></g></svg>